<svg xmlns="http://www.w3.org/2000/svg" width="27.893" height="17.364" viewBox="21 26.322 27.893 17.364"><desc>Made with illustrio</desc><path fill="#FFF" d="M46.191 28.779h-6.994v-1.733h6.994v1.733zM34.55 35.9c.452.701.67 1.55.67 2.539 0 1.032-.25 1.956-.766 2.773-.328.543-.737.99-1.227 1.363-.557.428-1.211.712-1.962.87-.756.161-1.568.24-2.45.24H21V26.322h8.379c2.119.034 3.61.647 4.494 1.85.531.736.799 1.623.799 2.65 0 1.061-.269 1.912-.802 2.561-.298.358-.744.692-1.322.984.884.322 1.551.827 2.002 1.533zm-9.546-2.736h3.668c.758 0 1.369-.142 1.837-.428.472-.285.704-.799.704-1.526 0-.812-.312-1.346-.936-1.604-.533-.176-1.215-.272-2.046-.272h-3.228v3.83h.001zm6.564 5.027c0-.902-.367-1.525-1.103-1.854-.411-.192-.994-.293-1.738-.298h-3.723v4.626h3.666c.752 0 1.336-.104 1.757-.302.76-.382 1.141-1.107 1.141-2.172zm17.213-2.823c.086.565.119 1.398.11 2.47h-9.048c.039 1.252.475 2.121 1.293 2.617.49.318 1.09.479 1.793.479.738 0 1.336-.19 1.803-.568.264-.213.48-.489.676-.865h3.317c-.098.738-.488 1.492-1.212 2.256-1.115 1.202-2.672 1.805-4.672 1.805-1.656 0-3.122-.502-4.382-1.526-1.258-1.015-1.903-2.676-1.903-4.968 0-2.161.57-3.82 1.715-4.966 1.144-1.153 2.619-1.724 4.444-1.724 1.085 0 2.062.195 2.93.581.872.391 1.583 1.004 2.138 1.84.512.744.844 1.599.998 2.569zm-3.265.321c-.059-.863-.352-1.517-.869-1.958-.518-.45-1.168-.678-1.93-.678-.828 0-1.479.242-1.938.709-.46.474-.743 1.115-.866 1.925l5.603.002z"/></svg>