<?xml version="1.0" encoding="utf-8"?>
<!-- Generator: Adobe Illustrator 15.1.0, SVG Export Plug-In . SVG Version: 6.00 Build 0)  -->
<!DOCTYPE svg PUBLIC "-//W3C//DTD SVG 1.1//EN" "http://www.w3.org/Graphics/SVG/1.1/DTD/svg11.dtd">
<svg version="1.1" id="Layer_1" xmlns="http://www.w3.org/2000/svg" xmlns:xlink="http://www.w3.org/1999/xlink" x="0px" y="0px"
	 width="70px" height="70px" viewBox="0 0 70 70" enable-background="new 0 0 70 70" xml:space="preserve">
<desc>Made with illustrio</desc>
<g>
	<g>
		<path fill="#FFFFFF" d="M41.426,7.669c0.357,0.819,0.598,2.19,0.246,3.19c1.426,1.225,1.93,4.194,1.23,6.633
			c2.041,0.159,4.471-0.072,6.045,0.553c-1.471-0.189-3.48-0.558-5.365-0.434c-0.359,0.027-0.896-0.014-0.869,0.491
			c2.201,0.175,4.379,0.357,6.176,0.921c-1.791-0.291-3.951-0.733-6.176-0.798c-0.908,1.804-2.756,2.698-5.309,2.887
			c0.271,0.599,0.809,0.821,0.926,1.791c0.189,1.425-0.285,3.521,0.188,4.474c0.236,0.461,0.617,0.467,0.867,0.853
			c-0.625,0.751-2.174-0.081-2.344-0.853c-0.301-1.332,0.459-3.397-0.375-4.301c0.059,1.449-0.334,3.49,0.059,4.791
			c0.162,0.514,0.621,0.707,0.504,1.17c-2.905,0.297-1.689-3.754-2.168-6.146c-0.436,0.041-0.244,0.653-0.247,0.919
			c-0.012,2.34,0.478,5.533-2.033,5.225c-0.077-0.486,0.341-0.654,0.494-1.107c0.461-1.31-0.085-3.271,0.123-4.852
			c-0.958,0.729,0.104,3.246-0.492,4.547c-0.34,0.739-1.446,1.066-2.286,0.738c0.109-0.553,0.682-0.467,0.926-0.984
			c0.339-0.727,0.001-1.764,0.122-2.828c-1.774,0.355-3.149-0.051-3.827-1.168c-0.298-0.496-0.371-1.092-0.737-1.529
			c-0.357-0.439-0.939-0.496-1.113-1.098c2.202-0.535,2.285,2.263,4.262,2.322c0.609,0.023,0.922-0.17,1.482-0.302
			c0.16-0.706,0.492-1.228,0.984-1.604c-2.455-0.33-4.484-1.097-5.426-2.943c-2.234,0.111-4.278,0.409-6.177,0.865
			c1.724-0.623,3.839-0.852,6.112-0.922c-0.137-0.806-1.309-0.584-2.034-0.557c-1.358,0.055-3.063,0.228-4.14,0.432
			c1.564-0.557,3.747-0.487,5.86-0.492c-0.644-2.028-0.422-5.251,0.993-6.453c-0.4-1.006-0.275-2.645,0.244-3.432
			c1.577,0.068,2.53,0.752,3.523,1.414c1.226-0.351,2.51-0.527,4.194-0.435c0.709,0.04,1.439,0.356,1.969,0.311
			c0.52-0.051,1.092-0.636,1.605-0.866C40.102,7.806,40.664,7.694,41.426,7.669L41.426,7.669z"/>
	</g>
</g>
</svg>
