<svg xmlns="http://www.w3.org/2000/svg" width="27.893" height="21.388" viewBox="21.054 7.668 27.893 21.388"><desc>Made with illustrio</desc><path fill="#FFF" d="M41.426 7.669c.357.819.598 2.19.246 3.19 1.426 1.225 1.93 4.194 1.23 6.633 2.041.159 4.471-.072 6.045.553-1.471-.189-3.48-.558-5.365-.434-.359.027-.896-.014-.869.491 2.201.175 4.379.357 6.176.921-1.791-.291-3.951-.733-6.176-.798-.908 1.804-2.756 2.698-5.309 2.887.271.599.809.821.926 1.791.189 1.425-.285 3.521.188 4.474.236.461.617.467.867.853-.625.751-2.174-.081-2.344-.853-.301-1.332.459-3.397-.375-4.301.059 1.449-.334 3.49.059 4.791.162.514.621.707.504 1.17-2.904.297-1.688-3.754-2.167-6.146-.436.041-.244.653-.247.919-.012 2.34.478 5.533-2.033 5.225-.077-.486.341-.654.494-1.107.461-1.31-.085-3.271.123-4.852-.958.729.104 3.246-.492 4.547-.34.739-1.446 1.066-2.286.738.109-.553.682-.467.926-.984.339-.727.001-1.764.122-2.828-1.774.355-3.149-.051-3.827-1.168-.298-.496-.371-1.092-.737-1.529-.357-.439-.939-.496-1.113-1.098 2.202-.535 2.285 2.263 4.262 2.322.609.023.922-.17 1.482-.302.16-.706.492-1.228.984-1.604-2.455-.33-4.484-1.097-5.426-2.943a33.446 33.446 0 0 0-6.177.865c1.724-.623 3.839-.852 6.112-.922-.137-.806-1.309-.584-2.034-.557-1.358.055-3.063.228-4.14.432 1.564-.557 3.747-.487 5.86-.492-.644-2.028-.422-5.251.993-6.453-.4-1.006-.275-2.645.244-3.432 1.577.068 2.53.752 3.523 1.414 1.226-.351 2.51-.527 4.194-.435.709.04 1.438.356 1.969.311.521-.051 1.093-.636 1.604-.866.66-.286 1.222-.398 1.984-.423z"/></svg>