<?xml version="1.0" encoding="utf-8"?>
<!-- Generator: Adobe Illustrator 15.1.0, SVG Export Plug-In . SVG Version: 6.00 Build 0)  -->
<!DOCTYPE svg PUBLIC "-//W3C//DTD SVG 1.1//EN" "http://www.w3.org/Graphics/SVG/1.1/DTD/svg11.dtd">
<svg version="1.1" id="Layer_1" xmlns="http://www.w3.org/2000/svg" xmlns:xlink="http://www.w3.org/1999/xlink" x="0px" y="0px"
	 width="27.893px" height="27.893px" viewBox="21 21 27.893 27.893" enable-background="new 21 21 27.893 27.893"
	 xml:space="preserve">
<desc>Made with illustrio</desc>
<g>
	<g>
		<path fill="#FFFFFF" d="M46.828,21H23.066C21.925,21,21,21.898,21,23v23.898c0,1.099,0.925,1.994,2.066,1.994h23.762
			c1.143,0,2.064-0.896,2.064-1.994V23C48.893,21.898,47.971,21,46.828,21L46.828,21z M29.458,44.348h-4.213v-12.59h4.213V44.348
			L29.458,44.348z M27.349,30.04h-0.028c-1.415,0-2.329-0.974-2.329-2.178c0-1.238,0.942-2.178,2.384-2.178
			c1.442,0,2.329,0.94,2.355,2.178C29.733,29.065,28.819,30.04,27.349,30.04L27.349,30.04z M44.647,44.348h-4.205v-6.734
			c0-1.691-0.618-2.855-2.144-2.855c-1.17,0-1.854,0.783-2.155,1.543c-0.11,0.258-0.14,0.636-0.14,1.015v7.031h-4.215
			c0,0,0.054-11.412,0-12.59h4.215v1.785c0.553-0.856,1.555-2.083,3.793-2.083c2.775,0,4.851,1.8,4.851,5.668V44.348L44.647,44.348z
			 M35.979,33.611c0.006-0.022,0.016-0.044,0.042-0.067v0.067H35.979L35.979,33.611L35.979,33.611z"/>
	</g>
</g>
</svg>
