<svg xmlns="http://www.w3.org/2000/svg" width="27.893" height="27.893" viewBox="21 21 27.893 27.893"><desc>Made with illustrio</desc><path fill="#FFF" d="M46.828 21H23.066C21.925 21 21 21.898 21 23v23.898c0 1.099.925 1.994 2.066 1.994h23.762c1.143 0 2.064-.896 2.064-1.994V23c.001-1.102-.921-2-2.064-2zm-17.37 23.348h-4.213v-12.59h4.213v12.59zM27.349 30.04h-.028c-1.415 0-2.329-.974-2.329-2.178 0-1.238.942-2.178 2.384-2.178s2.329.94 2.355 2.178c.002 1.203-.912 2.178-2.382 2.178zm17.298 14.308h-4.205v-6.734c0-1.691-.618-2.855-2.144-2.855-1.17 0-1.854.783-2.155 1.543-.11.258-.14.636-.14 1.015v7.031h-4.215s.054-11.412 0-12.59h4.215v1.785c.553-.856 1.555-2.083 3.793-2.083 2.775 0 4.851 1.8 4.851 5.668v7.22zm-8.668-10.737a.129.129 0 0 1 .042-.067v.067h-.042z"/></svg>