<svg xmlns="http://www.w3.org/2000/svg" width="27.893" height="24.181" viewBox="21 22.915 27.893 24.181"><desc>Made with illustrio</desc><path fill="#FFF" d="M44.811 22.92c-3.874-.125-6.492 2.049-7.875 6.529.707-.291 1.392-.438 2.069-.438 1.415 0 2.04.792 1.876 2.384-.082.967-.707 2.367-1.876 4.207-1.171 1.848-2.043 2.758-2.618 2.758-.757 0-1.442-1.418-2.069-4.265-.214-.833-.587-2.967-1.13-6.4-.502-3.183-1.836-4.667-4.001-4.455-.914.083-2.287.918-4.117 2.508-1.34 1.21-2.691 2.432-4.07 3.643l1.314 1.692c1.25-.878 1.983-1.32 2.186-1.32.962 0 1.854 1.509 2.69 4.519l2.254 8.293c1.118 3.004 2.502 4.521 4.124 4.521 2.625 0 5.84-2.477 9.629-7.41 3.657-4.734 5.557-8.457 5.681-11.18.175-3.636-1.183-5.5-4.067-5.586z"/></svg>