<?xml version="1.0" encoding="utf-8"?>
<!-- Generator: Adobe Illustrator 15.1.0, SVG Export Plug-In . SVG Version: 6.00 Build 0)  -->
<!DOCTYPE svg PUBLIC "-//W3C//DTD SVG 1.1//EN" "http://www.w3.org/Graphics/SVG/1.1/DTD/svg11.dtd">
<svg version="1.1" id="Layer_1" xmlns="http://www.w3.org/2000/svg" xmlns:xlink="http://www.w3.org/1999/xlink" x="0px" y="0px"
	 width="27.893px" height="17.364px" viewBox="21 26.322 27.893 17.364" enable-background="new 21 26.322 27.893 17.364"
	 xml:space="preserve">
<desc>Made with illustrio</desc>
<g>
	<g>
		<path fill="#FFFFFF" d="M46.191,28.779h-6.994v-1.733h6.994V28.779L46.191,28.779z M34.55,35.9c0.452,0.701,0.67,1.55,0.67,2.539
			c0,1.032-0.25,1.956-0.766,2.773c-0.328,0.543-0.737,0.99-1.227,1.363c-0.557,0.428-1.211,0.712-1.962,0.87
			c-0.756,0.161-1.568,0.24-2.45,0.24H21V26.322h8.379c2.119,0.034,3.61,0.647,4.494,1.85c0.531,0.736,0.799,1.623,0.799,2.65
			c0,1.061-0.269,1.912-0.802,2.561c-0.298,0.358-0.744,0.692-1.322,0.984C33.432,34.689,34.099,35.194,34.55,35.9L34.55,35.9z
			 M25.004,33.164h3.668c0.758,0,1.369-0.142,1.837-0.428c0.472-0.285,0.704-0.799,0.704-1.526c0-0.812-0.312-1.346-0.936-1.604
			c-0.533-0.176-1.215-0.272-2.046-0.272h-3.228V33.164L25.004,33.164z M31.568,38.191c0-0.902-0.367-1.525-1.103-1.854
			c-0.411-0.192-0.994-0.293-1.738-0.298h-3.723v4.626h3.666c0.752,0,1.336-0.104,1.757-0.302
			C31.187,39.981,31.568,39.256,31.568,38.191L31.568,38.191z M48.781,35.368c0.086,0.565,0.119,1.398,0.11,2.47h-9.048
			c0.039,1.252,0.475,2.121,1.293,2.617c0.49,0.318,1.09,0.479,1.793,0.479c0.738,0,1.336-0.19,1.803-0.568
			c0.264-0.213,0.48-0.489,0.676-0.865h3.317c-0.098,0.738-0.488,1.492-1.212,2.256c-1.115,1.202-2.672,1.805-4.672,1.805
			c-1.656,0-3.122-0.502-4.382-1.526c-1.258-1.015-1.903-2.676-1.903-4.968c0-2.161,0.57-3.82,1.715-4.966
			c1.144-1.153,2.619-1.724,4.444-1.724c1.085,0,2.062,0.195,2.93,0.581c0.872,0.391,1.583,1.004,2.138,1.84
			C48.295,33.543,48.627,34.398,48.781,35.368L48.781,35.368z M45.516,35.689c-0.059-0.863-0.352-1.517-0.869-1.958
			c-0.518-0.45-1.168-0.678-1.93-0.678c-0.828,0-1.479,0.242-1.938,0.709c-0.46,0.474-0.743,1.115-0.866,1.925L45.516,35.689
			L45.516,35.689L45.516,35.689z"/>
	</g>
</g>
</svg>
