<?xml version="1.0" encoding="utf-8"?>
<!-- Generator: Adobe Illustrator 15.1.0, SVG Export Plug-In . SVG Version: 6.00 Build 0)  -->
<!DOCTYPE svg PUBLIC "-//W3C//DTD SVG 1.1//EN" "http://www.w3.org/Graphics/SVG/1.1/DTD/svg11.dtd">
<svg version="1.1" id="Layer_1" xmlns="http://www.w3.org/2000/svg" xmlns:xlink="http://www.w3.org/1999/xlink" x="0px" y="0px"
	 width="27.893px" height="24.181px" viewBox="21 22.915 27.893 24.181" enable-background="new 21 22.915 27.893 24.181"
	 xml:space="preserve">
<desc>Made with illustrio</desc>
<g>
	<g>
		<path fill="#FFFFFF" d="M44.811,22.92c-3.874-0.125-6.492,2.049-7.875,6.529c0.707-0.291,1.392-0.438,2.069-0.438
			c1.415,0,2.04,0.792,1.876,2.384c-0.082,0.967-0.707,2.367-1.876,4.207c-1.171,1.848-2.043,2.758-2.618,2.758
			c-0.757,0-1.442-1.418-2.069-4.265c-0.214-0.833-0.587-2.967-1.13-6.4c-0.502-3.183-1.836-4.667-4.001-4.455
			c-0.914,0.083-2.287,0.918-4.117,2.508c-1.34,1.21-2.691,2.432-4.07,3.643l1.314,1.692c1.25-0.878,1.983-1.32,2.186-1.32
			c0.962,0,1.854,1.509,2.69,4.519c0.751,2.764,1.502,5.523,2.254,8.293c1.118,3.004,2.502,4.521,4.124,4.521
			c2.625,0,5.84-2.477,9.629-7.41c3.657-4.734,5.557-8.457,5.681-11.18C49.053,24.87,47.695,23.006,44.811,22.92L44.811,22.92z"/>
	</g>
</g>
</svg>
